<svg width="170" height="140" viewBox="0 0 170 140" fill="none" xmlns="http://www.w3.org/2000/svg">
<rect x="0.5" y="0.5" width="169" height="139" rx="9.5" fill="white" stroke="#D9DCE1"/>
<path d="M85.2852 36.795L90.8502 60.585C90.8502 60.585 79.4202 61.785 76.0602 64.905C72.6852 68.025 71.0052 71.445 68.7852 75.255L53.4102 59.655C53.4102 59.655 56.2602 47.715 65.1402 41.55C74.0202 35.385 85.2852 36.795 85.2852 36.795Z" fill="#B6E5FF"/>
<path d="M87.5496 95.085C82.3296 94.965 77.9796 93.42 74.9496 89.175C72.7596 86.115 72.0396 82.605 72.1446 78.915C72.2496 75.045 73.2546 71.46 75.9396 68.52C79.5546 64.59 84.1896 63.465 89.3046 63.93C94.0746 64.365 98.0496 66.39 100.405 70.65C103.6 76.44 103.585 82.455 100.405 88.23C98.1096 92.385 94.2246 94.365 89.5746 94.92C88.8396 95.01 88.1046 95.025 87.5796 95.07L87.5496 95.085Z" fill="#52B0FF"/>
<path d="M94.3307 42.9002C92.7857 42.4952 91.2107 42.4352 89.6207 42.4952C88.0757 42.5552 88.0757 40.1552 89.6207 40.0952C93.1007 39.9752 97.2107 40.5452 99.7607 43.1702C100.886 44.3252 101.966 45.6902 102.446 47.2352C103.076 49.2452 103.166 51.5252 103.031 53.6252C102.986 54.2702 102.521 54.8252 101.831 54.8252C101.216 54.8252 100.586 54.2702 100.631 53.6252C100.751 51.7802 100.691 49.8452 100.181 48.0602C99.8357 46.8302 98.9507 45.7652 98.0657 44.8652C97.8107 44.5952 97.7207 44.5052 97.5257 44.3852C97.1807 44.1602 96.8357 43.9352 96.4757 43.7402C95.7857 43.3802 95.0807 43.1102 94.3307 42.9002Z" fill="#1C1D1F"/>
<path d="M91.8726 65.6272C92.1374 62.2433 92.4585 58.5537 96.0711 57.2997C100.241 55.8447 102.161 60.4347 102.041 63.7947C101.891 68.1147 101.141 72.6597 100.376 76.9197C99.6861 80.7297 98.5611 84.9147 95.6211 87.6597C90.7611 92.2047 83.9361 92.6847 78.4311 89.0847C71.3361 84.4347 68.2161 77.0097 65.0961 69.4497L64.881 68.9219C64.0627 66.9159 63.229 64.8718 62.6361 62.7897C62.3061 61.6047 62.0661 60.1947 62.7711 59.0847C63.643 57.7209 64.8777 57.2494 66.1295 57.3667C65.9582 56.9756 65.8008 56.5793 65.6661 56.1752C65.2011 54.7802 65.2011 53.2502 65.7411 51.8702C66.1161 50.8952 67.0761 50.3402 68.0211 49.9952C68.4483 49.839 68.8495 49.7587 69.2244 49.7458C68.8021 47.3448 69.0396 44.691 71.9056 44.1751C74.0006 43.7925 75.7967 45.1303 76.9942 46.8734C77.9622 45.7487 79.4684 45.4051 80.9057 45.75C82.4057 46.11 83.5457 47.25 84.3407 48.525C85.194 49.8641 85.7945 51.3755 86.3837 52.8581C86.4677 53.0695 86.5514 53.2804 86.6357 53.49C87.4157 55.41 88.2107 57.3 89.0957 59.175C89.8907 60.855 90.6557 62.55 91.3457 64.26C91.4511 64.5236 91.5523 64.7899 91.6536 65.0564C91.726 65.2467 91.7986 65.4376 91.8726 65.6272ZM80.1633 68.1873C80.424 68.7938 80.685 69.4011 80.9506 70.0051L80.9356 69.9901C81.5656 71.4001 79.4956 72.6151 78.8656 71.2051C78.5942 70.5967 78.3266 69.9875 78.0592 69.379C77.0415 67.0621 76.0274 64.7535 74.8156 62.5201C74.5982 62.1169 74.3788 61.713 74.1588 61.3082C72.6887 58.6028 71.1956 55.855 70.137 52.9646C69.9107 52.3828 69.721 52.0695 69.1311 52.1702C68.6811 52.2452 68.1711 52.5002 67.9461 52.9202C67.0829 54.5047 68.3077 56.7231 69.2618 58.4511C69.451 58.7938 69.6296 59.1173 69.7791 59.4127C69.835 59.4984 69.8772 59.5861 69.9071 59.6745L69.9261 59.7152L70.0917 60.0767C71.1026 62.2827 72.12 64.503 73.0161 66.7502C73.7961 68.7002 74.6211 70.5902 75.4761 72.5102L75.4611 72.4652C76.0761 73.8752 74.0061 75.0902 73.3911 73.6802C73.1667 73.1842 72.9305 72.6948 72.6948 72.2063C72.3317 71.4541 71.9693 70.7032 71.6511 69.9302C71.3738 69.2701 71.1196 68.6037 70.8658 67.9383C70.543 67.092 70.2205 66.2465 69.8511 65.4152C69.7052 65.0854 69.558 64.7516 69.41 64.416C68.8636 63.1769 68.3066 61.9139 67.7676 60.7412C67.1367 60.0778 66.4418 59.4531 65.5311 59.8947C64.8561 60.2247 64.6611 60.6597 64.7811 61.4247C64.9822 62.6436 65.4635 63.8625 65.9302 65.0446C66.0551 65.3608 66.1789 65.6744 66.2961 65.9847C67.5411 69.2697 68.9511 72.5247 70.4361 75.7047C72.8811 80.9247 76.5111 85.9047 81.9711 88.2897C86.4261 90.2397 92.1711 88.6497 95.0511 84.6597C97.955 80.6258 98.4968 75.1452 98.9965 70.0912C99.1137 68.9059 99.2286 67.7439 99.3711 66.6297C99.4028 66.3829 99.4386 66.1319 99.4748 65.8779C99.6786 64.4494 99.8963 62.9238 99.4761 61.4847C98.9811 59.7897 97.4661 58.8147 95.9511 60.1497C94.2979 61.612 94.202 64.145 94.1135 66.4791C94.0825 67.3 94.0523 68.0962 93.9557 68.8126C93.9552 69.1536 93.9249 69.3925 93.8207 69.72C93.5657 70.545 92.4407 70.935 91.8107 70.245C90.5867 68.9031 89.9571 67.2857 89.3091 65.6209L89.2757 65.535C88.5557 63.66 87.7307 61.875 86.8457 60.015C85.9607 58.155 85.1657 56.25 84.4007 54.33C84.2953 54.0633 84.1901 53.7873 84.0832 53.5069C83.4749 51.9113 82.806 50.1569 81.6707 48.945C81.1157 48.375 80.2907 47.835 79.4507 48.06C78.4607 48.33 78.3257 49.47 78.4607 50.325C78.6862 51.7969 79.4002 53.2969 80.0674 54.6987C80.2433 55.0684 80.416 55.4313 80.5757 55.785C82.2257 59.475 84.1157 63.045 86.0207 66.6V66.57C86.7557 67.935 84.6857 69.15 83.9507 67.785C81.9857 64.125 80.0357 60.435 78.3407 56.625C78.1819 56.2663 78.0026 55.886 77.8157 55.4896C77.0955 53.9621 76.2624 52.1951 76.054 50.497C75.7368 49.312 75.064 48.1014 74.1556 47.2651C73.0756 46.2901 71.4556 46.2151 71.3956 47.9851C71.3574 49.1311 71.6327 50.3258 72.0505 51.5002C72.2104 51.774 72.3523 52.0739 72.4761 52.3952C72.5284 52.5325 72.5553 52.6623 72.5605 52.7836C72.9361 53.6484 73.3568 54.4876 73.7498 55.2718C73.8736 55.5187 73.9946 55.7601 74.1106 55.9951C74.7481 57.2926 75.4344 58.5639 76.1206 59.8351C76.8069 61.1064 77.4931 62.3776 78.1306 63.6751C78.8592 65.1537 79.5112 66.6705 80.1633 68.1873Z" fill="#1C1D1F"/>
<path d="M58.9753 75.2548C58.8403 77.5798 59.3203 80.0248 60.8653 81.8398C62.4853 83.7448 65.1553 84.3148 67.5403 84.1648C68.1703 84.1198 68.7703 83.6398 68.7403 82.9648C68.7103 82.3498 68.2153 81.7198 67.5403 81.7648C67.0303 81.7948 66.5053 81.7948 65.9953 81.7648C65.9779 81.7648 65.9087 81.758 65.8418 81.7515C65.736 81.7412 65.6359 81.7314 65.7553 81.7498C65.6953 81.7423 65.6353 81.731 65.5753 81.7198C65.5153 81.7085 65.4553 81.6973 65.3953 81.6898C65.1553 81.6448 64.9153 81.5848 64.6753 81.5098C63.8353 81.2548 63.1603 80.8648 62.5453 80.1598C62.5303 80.1373 62.5116 80.1148 62.4928 80.0923L62.4775 80.0738L62.4688 80.0617L62.4553 80.0398C62.4333 80.0068 62.4093 79.9738 62.3848 79.9401C62.3423 79.8818 62.2983 79.8213 62.2603 79.7548C62.1762 79.6239 62.1037 79.4872 62.032 79.352C61.9886 79.2702 61.9455 79.1889 61.9003 79.1098C61.8984 79.1064 61.8965 79.1031 61.8947 79.0999C61.8819 79.0779 61.8726 79.0628 61.866 79.0527C61.8615 79.0369 61.8535 79.0121 61.8403 78.9748C61.8166 78.9194 61.797 78.8639 61.7772 78.8063C61.7744 78.7981 61.7715 78.7898 61.7687 78.7815C61.7537 78.7376 61.7382 78.6924 61.7203 78.6448C61.6453 78.4198 61.5853 78.1949 61.5253 77.9699C61.4864 77.8238 61.46 77.6712 61.434 77.5206C61.42 77.4394 61.4061 77.3586 61.3903 77.2798C61.3854 77.2484 61.3815 77.2253 61.3785 77.2089C61.3784 77.1939 61.3775 77.169 61.3753 77.1298C61.3753 77.0678 61.3673 77.0058 61.3596 76.9459C61.3523 76.8898 61.3453 76.8355 61.3453 76.7848C61.3153 76.2748 61.3153 75.7648 61.3453 75.2548C61.3903 74.6248 60.7603 74.0248 60.1453 74.0548C59.4553 74.0848 58.9903 74.5798 58.9453 75.2548H58.9753ZM62.4728 80.068L62.4688 80.0617L62.4589 80.0485L62.4403 80.0248C62.4499 80.0392 62.4611 80.0536 62.4728 80.068ZM62.4868 80.0886L62.4815 80.0813L62.4728 80.068L62.4775 80.0738C62.4842 80.0833 62.4869 80.0881 62.4868 80.0886Z" fill="#1C1D1F"/>
<path d="M58.1958 84.8852C55.8558 82.3952 54.9108 79.0802 54.2358 75.8252V75.8102C54.1008 75.1802 54.4158 74.5202 55.0758 74.3402C55.6608 74.1752 56.4108 74.5502 56.5458 75.1802C57.1158 77.9402 57.8058 80.8952 59.7558 83.0402C60.6258 84.0002 61.6608 84.7202 62.9058 85.0802C64.3758 85.5152 65.9208 85.6502 67.4658 85.7252C69.0108 85.8002 69.0108 88.2002 67.4658 88.1252C64.0758 87.9602 60.5358 87.3752 58.1958 84.8852Z" fill="#1C1D1F"/>
<path d="M89.9656 47.0249C90.1232 46.9723 90.2734 46.9345 90.4265 46.896C90.492 46.8795 90.5582 46.8628 90.6256 46.8449C90.6892 46.8316 90.7237 46.8231 90.7396 46.8178L90.7756 46.8149C90.8356 46.8149 90.8956 46.8111 90.9556 46.8074C91.0156 46.8036 91.0756 46.7999 91.1356 46.7999C91.3606 46.7999 91.5706 46.7999 91.7956 46.8299H91.7656C91.8256 46.8299 91.8856 46.8449 91.9456 46.8599C92.0356 46.8749 92.1406 46.9049 92.2306 46.9349L92.271 46.949C92.3588 46.98 92.5274 47.0395 92.3656 46.9649C92.4181 46.9874 92.4706 47.0136 92.5231 47.0399C92.5756 47.0661 92.6281 47.0924 92.6806 47.1149C92.8906 47.2199 93.0856 47.3549 93.2806 47.4899C93.3106 47.5049 93.5806 47.7149 93.4156 47.5949C93.4531 47.6249 93.4906 47.6586 93.5281 47.6924C93.5656 47.7261 93.6031 47.7599 93.6406 47.7899C93.8206 47.9549 93.9856 48.1199 94.1506 48.2999C94.2256 48.3749 94.2856 48.4498 94.3456 48.5248C94.3456 48.5398 94.5706 48.8099 94.4506 48.6599C94.5856 48.8549 94.7206 49.0499 94.8406 49.2449C95.0956 49.6799 95.1706 49.8599 95.2906 50.3999C95.2981 50.4524 95.3094 50.5049 95.3206 50.5574C95.3319 50.6099 95.3431 50.6624 95.3506 50.7149C95.3206 50.5199 95.3506 50.8799 95.3656 50.9099C95.3956 51.1649 95.4106 51.4199 95.4256 51.6899L95.4259 51.6959C95.4558 52.2489 95.4857 52.8018 95.5156 53.3399C95.5456 53.9699 96.0406 54.5699 96.7156 54.5399C97.3306 54.5099 97.9456 54.0149 97.9156 53.3399C97.8973 53.0367 97.8853 52.73 97.8732 52.4219C97.8357 51.4647 97.7976 50.494 97.5706 49.5749C97.2706 48.3599 96.5806 47.3699 95.7706 46.5149C94.9606 45.6599 93.9706 44.9549 92.8606 44.6249C91.7506 44.2949 90.4306 44.3399 89.3206 44.7149C88.7206 44.9099 88.2706 45.5549 88.4806 46.1849C88.6756 46.7849 89.3206 47.2349 89.9506 47.0249H89.9656Z" fill="#1C1D1F"/>
</svg>
