<svg width="59" height="60" viewBox="0 0 59 60" fill="none" xmlns="http://www.w3.org/2000/svg">
<path d="M35.9017 59.34C35.4739 55.89 35.1789 52.545 34.6037 49.245C34.2644 47.31 34.4857 45.81 36.1524 44.655C36.4917 44.43 36.7129 44.025 36.9637 43.68C38.2469 41.91 38.4534 40.185 37.5537 38.715C36.3737 36.795 34.5152 35.775 32.4502 36.315C30.7097 36.765 29.0724 37.59 27.3909 38.25C27.1844 38.325 26.9927 38.445 26.6682 38.595C26.4617 36.87 26.2552 35.25 26.0634 33.63C25.6504 30.09 25.2669 26.565 24.8097 23.025C24.6917 22.155 24.8539 21.69 25.6799 21.255C28.5267 19.785 31.1374 19.65 34.3087 19.11C39.0729 18.315 43.4242 18.57 46.8757 21.9C50.7844 25.65 53.4394 30.06 53.4837 35.715C53.5132 40.08 51.8612 43.875 49.3979 47.34C45.9317 52.185 41.5067 55.965 36.5064 59.07C36.3737 59.16 36.2114 59.205 35.9164 59.34H35.9017Z" fill="#F3B715"/>
<path d="M25.9602 0.584961L37.4357 25.68C37.4357 25.68 26.5207 29.25 23.8657 33.06C21.2107 36.855 19.8832 38.19 21.2107 44.385L0.678711 32.58C0.678711 32.58 1.00321 20.13 8.40771 12.15C15.827 4.15496 25.9602 0.584961 25.9602 0.584961Z" fill="#FFDB7B"/>
<path d="M29.4996 21.945C33.2756 21.87 37.0516 21.645 40.8129 21.24C41.4471 21.165 41.9929 20.73 41.9929 20.04C41.9929 19.44 41.4471 18.765 40.8129 18.84C37.0516 19.245 33.2904 19.47 29.4996 19.545C27.9804 19.575 27.9804 21.975 29.4996 21.945Z" fill="#1C1D1F"/>
<path d="M38.4385 26.5498C35.7097 26.6998 32.9662 26.9698 30.2522 27.3898H30.2375C29.618 27.4798 28.9837 27.2398 28.792 26.5498C28.6445 25.9798 28.9837 25.1698 29.618 25.0798C32.5385 24.6298 35.4885 24.3148 38.4385 24.1498C39.0727 24.1198 39.6185 24.7198 39.6185 25.3498C39.6185 26.0248 39.0727 26.5198 38.4385 26.5498Z" fill="#1C1D1F"/>
<path d="M30.7242 33.045C34.987 32.79 39.2497 32.4 43.4977 31.89C44.132 31.815 44.6777 31.395 44.6777 30.69C44.6777 30.105 44.132 29.415 43.4977 29.49C39.2497 30 34.987 30.39 30.7242 30.645C29.2197 30.735 29.205 33.135 30.7242 33.045Z" fill="#1C1D1F"/>
<path d="M38.276 38.3697L32.0073 39.1047C31.3435 39.1797 30.8568 38.4897 30.8273 37.9047C30.7978 37.1997 31.4025 36.7797 32.0073 36.7047L38.276 35.9697C38.9398 35.8947 39.4265 36.5847 39.456 37.1697C39.4855 37.8747 38.8808 38.2947 38.276 38.3697Z" fill="#1C1D1F"/>
<path d="M31.4617 45.4502C35.2377 45.2552 38.999 44.9402 42.7602 44.5052C43.3945 44.4302 43.9402 44.0102 43.9402 43.3052C43.9402 42.7202 43.3945 42.0302 42.7602 42.1052C38.999 42.5402 35.2377 42.8552 31.4617 43.0502C29.9572 43.1252 29.9425 45.5252 31.4617 45.4502Z" fill="#1C1D1F"/>
<path d="M36.7238 12.6923C36.6202 11.7154 36.515 10.7403 36.4097 9.76515C36.2732 8.5014 36.1368 7.23765 36.0041 5.97015C35.9156 5.16015 35.3256 4.65015 34.5143 4.81515C25.9593 6.51015 17.3158 7.66515 8.62805 8.29515C7.52299 8.37228 7.22164 9.68755 7.74155 10.3389C7.74902 10.3866 7.75926 10.4353 7.77244 10.4849L7.78719 10.4699C11.2534 23.7149 13.2152 37.2899 13.6429 50.9999C13.6577 51.5999 14.1739 52.2749 14.8229 52.1999C18.7102 51.7802 22.5614 51.1895 26.3874 50.4277C26.4291 50.5957 26.4729 50.7628 26.5168 50.9303C26.6066 51.2727 26.697 51.6174 26.7704 51.9749C26.8295 52.2603 26.8627 52.5457 26.8953 52.8254C26.9927 53.6631 27.0842 54.4502 27.8472 55.0349C28.6534 55.6569 29.6693 55.6394 30.6355 55.6228L30.8119 55.6199C32.7147 55.5899 34.6174 55.4849 36.5202 55.3499C39.9569 55.0949 43.3642 54.6599 46.7567 54.0749C46.9863 54.0348 47.2154 53.9978 47.4421 53.9612C49.6755 53.6004 51.6655 53.2789 51.4914 50.4599C51.1948 45.6327 50.8174 40.8118 50.4398 35.989C50.2355 33.3786 50.0311 30.7677 49.8394 28.1549C49.7067 26.3549 49.5739 24.5587 49.4412 22.7624C49.3084 20.9662 49.1757 19.1699 49.0429 17.3699C49.0186 17.0414 49.0072 16.6915 48.9956 16.334C48.9296 14.3081 48.8555 12.0337 46.3732 11.9699C43.1932 11.8981 39.9192 12.2661 36.7238 12.6923ZM10.2307 10.5581C18.1333 9.92705 26.0083 8.86938 33.7937 7.38504C33.8784 8.17818 33.964 8.9713 34.0495 9.76352L34.0497 9.76515C34.1664 10.8459 34.283 11.9266 34.3974 13.0096L34.3224 13.0199C32.8629 13.22 31.4256 13.4387 30.0008 13.6782L29.9272 12.3298C29.9206 12.21 29.9173 12.0849 29.9139 11.9573C29.8944 11.2222 29.8727 10.4032 29.2192 10.0198C28.6676 9.69057 28.0088 9.79748 27.3934 9.89735C27.2517 9.92034 27.1124 9.94295 26.9772 9.95979C26.1069 10.0648 25.2219 10.1848 24.3517 10.3048C20.9887 10.7698 17.6257 11.3098 14.2774 11.9398C13.6432 12.0598 13.3039 12.8248 13.4514 13.4098C13.9824 15.5098 14.4839 17.6248 14.9412 19.7548C15.0887 20.4298 15.7967 20.6998 16.3867 20.5948C18.5336 20.2355 20.7056 20.029 22.8911 19.94C23.0644 20.6465 23.2274 21.3547 23.381 22.0646C21.1393 22.186 18.9073 22.6085 16.7708 23.3102C16.1808 23.5052 15.7383 24.1502 15.9448 24.7802C16.1365 25.3802 16.7708 25.8302 17.3903 25.6202C19.5782 24.8978 21.6292 24.5233 23.8598 24.4431C24.0296 25.3517 24.1853 26.2627 24.3284 27.1757C23.3794 27.3486 22.4371 27.5293 21.4887 27.7111L20.9741 27.8097C19.7203 28.0497 18.5403 28.2447 17.3898 28.3647C17.2831 28.3751 17.1773 28.397 17.0753 28.4297C17.0622 28.4329 17.0491 28.4365 17.0362 28.4403C16.6712 28.5392 16.4266 28.7834 16.2976 29.0878C16.2766 29.1352 16.259 29.1846 16.2451 29.236C16.1838 29.4484 16.1727 29.6813 16.2102 29.9103L16.2397 29.8953L18.2014 41.3253C18.2388 41.5451 18.2657 41.79 18.2936 42.0441C18.3646 42.6916 18.4423 43.399 18.7177 43.9053C19.2339 44.8353 20.1779 44.6103 21.0187 44.4003C22.6329 44.0125 24.247 43.6247 25.8518 43.237C25.9361 44.8382 26.0094 46.4398 26.0795 48.0401C22.7241 48.7271 19.3476 49.2775 15.9413 49.6739C15.428 36.4642 13.5287 23.3441 10.2307 10.5581ZM27.6615 14.0924C26.0374 14.3946 24.4227 14.7259 22.8027 15.0899C22.1979 15.2249 21.7997 15.9749 21.9767 16.5599C22.0772 16.8984 22.175 17.2373 22.2703 17.5768C20.4999 17.6611 18.7375 17.8403 16.9879 18.0948C16.6867 16.736 16.3683 15.3833 16.0366 14.0367C17.943 13.6864 19.8493 13.3675 21.7557 13.0798C22.8472 12.9148 23.9387 12.7648 25.0302 12.6148C25.3132 12.5759 25.6053 12.5309 25.9026 12.4852C26.4523 12.4005 27.0202 12.3131 27.5835 12.2559C27.5851 12.344 27.5856 12.4321 27.586 12.519C27.5869 12.6872 27.5878 12.8514 27.5967 13.0048C27.6114 13.2973 27.6298 13.5898 27.6483 13.8823L27.6615 14.0924ZM19.9517 37.7929L19.4648 34.9735C20.1536 34.9083 20.8414 34.8008 21.5262 34.6673C21.7068 35.5504 21.8735 36.4368 22.0361 37.3241C21.3406 37.4753 20.6456 37.6297 19.9517 37.7929ZM22.4639 39.6724C22.5764 40.2829 22.6911 40.8928 22.8114 41.5011L22.7297 41.5203C22.3595 41.6067 22.0012 41.7019 21.6479 41.7956C21.328 41.8806 21.0122 41.9644 20.6954 42.0397L20.5762 41.3853L20.3605 40.1528C21.0606 39.9858 21.762 39.8272 22.4639 39.6724ZM25.1017 40.951C24.9841 40.3596 24.872 39.7667 24.7623 39.173C25.0405 39.1128 25.3187 39.0523 25.5967 38.9914C25.6383 39.5957 25.6773 40.2002 25.7142 40.805C25.5096 40.8533 25.3055 40.902 25.1017 40.951ZM24.3348 36.828C24.1709 35.9313 24.0035 35.0353 23.8222 34.1427C24.1855 34.0509 24.5473 33.957 24.9074 33.8636L25.165 33.7968C25.2574 34.7263 25.3408 35.6572 25.4167 36.589C25.0563 36.6701 24.6957 36.7495 24.3348 36.828ZM23.3031 31.7905C23.1492 31.1538 22.9834 30.52 22.8019 29.8901L22.9241 29.8666C23.5059 29.7543 24.0878 29.642 24.6708 29.5349C24.7536 30.1534 24.8313 30.7727 24.9044 31.3927L24.417 31.5144C24.0462 31.6072 23.675 31.7 23.3031 31.7905ZM20.4692 30.3251C20.6613 30.9779 20.836 31.6351 20.9975 32.2954C20.5965 32.3727 20.1956 32.4456 19.7946 32.5053C19.775 32.5053 19.7152 32.5141 19.6748 32.52C19.6238 32.5275 19.6038 32.5304 19.7356 32.5053C19.6726 32.5053 19.6203 32.5162 19.5605 32.5288L19.5291 32.5353L19.1308 32.5803L19.0529 32.5882L18.7102 30.6036C19.2984 30.5218 19.8844 30.4272 20.4692 30.3251ZM28.4962 49.0199C28.0277 38.3084 27.491 27.5135 24.6113 17.1567C31.3123 15.7142 38.1158 14.785 44.9719 14.4449C45.2425 14.4308 45.4633 14.3976 45.645 14.3703C46.2355 14.2815 46.4113 14.2551 46.5354 15.1499C46.6122 15.6967 46.6401 16.2606 46.6675 16.8159C46.6687 16.8397 46.6699 16.8636 46.6711 16.8874C46.6794 17.0543 46.6878 17.2204 46.6977 17.3849L47.1402 23.3249C47.2729 25.125 47.4057 26.9213 47.5385 28.7177C47.6712 30.5138 47.8039 32.31 47.9367 34.1099C48.0694 35.9099 48.2022 37.7062 48.3349 39.5024C48.4677 41.2987 48.6004 43.0949 48.7332 44.8949L48.9544 47.8649C48.9667 48.0276 49.011 48.2925 49.0625 48.6003C49.196 49.3994 49.378 50.4884 49.1757 50.8349C48.7393 51.6057 46.9524 51.7764 45.6675 51.8992C45.3023 51.934 44.9775 51.9651 44.7359 52.0049C41.0779 52.5899 37.3757 52.9649 33.6734 53.1449C32.9654 53.1749 32.2427 53.2049 31.5347 53.2199C31.3611 53.2259 31.1802 53.2439 31 53.2619C30.2772 53.3339 29.5524 53.4061 29.2337 52.7099C29.1142 52.4495 29.0787 52.0585 29.0442 51.6793C29.0191 51.4032 28.9946 51.1335 28.9387 50.9249C28.8956 50.7644 28.8509 50.6101 28.8069 50.4586C28.67 49.987 28.5408 49.5421 28.4962 49.0199Z" fill="#1C1D1F"/>
</svg>
