<svg width="32" height="32" viewBox="0 0 32 32" fill="none" xmlns="http://www.w3.org/2000/svg">
<path d="M6.35206 24.872C4.45606 22.888 2.60006 20.856 1.32006 18.4C0.816057 17.432 0.440057 16.416 0.400057 15.304C0.344057 13.624 1.20006 12.392 2.37606 11.32C4.20806 9.64803 6.22406 9.48003 8.40006 10.584C10.1521 11.472 11.6481 12.712 13.0481 14.056C15.3361 16.24 17.4881 18.544 19.2881 21.152C20.1121 22.344 20.8241 23.592 21.1601 25.024C21.5441 26.664 21.1601 28.12 20.0081 29.328C19.4481 29.92 18.8081 30.464 18.1201 30.888C16.6321 31.8 15.0881 31.6 13.5601 30.904C11.6161 30.016 10.0401 28.624 8.51206 27.176C7.75206 26.456 7.06406 25.648 6.35206 24.88V24.872Z" fill="#98E2C5"/>
<path d="M31.5523 16.2959L20.3523 21.1119C20.3523 21.1119 16.0403 15.4159 16.4483 15.9519C16.8563 16.4879 13.4483 12.6719 11.7363 11.9839L16.7603 3.67188C16.7603 3.67188 22.6483 3.99988 26.3283 7.67988C30.0083 11.3599 31.5523 16.2879 31.5523 16.2879V16.2959Z" fill="#2CB987"/>
<path d="M10.8637 23.3442C12.2397 23.2882 13.6157 23.2342 14.9917 23.1802C16.3677 23.1262 17.7437 23.0722 19.1197 23.0162C19.9437 22.9842 19.9437 21.7042 19.1197 21.7362C17.7437 21.7922 16.3677 21.8462 14.9918 21.9002C13.6158 21.9542 12.2397 22.0082 10.8637 22.0642C10.0397 22.0962 10.0397 23.3762 10.8637 23.3442Z" fill="#1C1D1F"/>
<path d="M21.7803 10.1614C24.0899 12.1714 25.4822 15.1189 25.5276 18.2882C25.5281 18.3347 25.5244 18.3785 25.5171 18.4197C25.3934 23.4146 21.836 27.8726 16.8556 28.8242C12.4476 29.6642 7.90361 27.6802 5.57561 23.8162C3.24761 19.9522 3.63961 14.9442 6.49561 11.4562C9.35161 7.96822 14.3116 6.63222 18.5196 8.21622C19.3207 8.51778 20.0685 8.90776 20.7546 9.37238C21.9848 7.15822 23.2559 4.96706 24.5676 2.8002C24.9916 2.0962 26.0956 2.7442 25.6716 3.4482C24.3321 5.66106 23.0348 7.89928 21.7803 10.1614ZM15.1676 21.1442C13.5196 19.5042 11.8636 17.8562 10.2156 16.2082H10.2236C9.63959 15.6242 10.5436 14.7202 11.1276 15.3042L15.4403 19.603C16.9285 16.531 18.4921 13.4971 20.1302 10.5045C19.1094 9.79497 17.9366 9.27893 16.6556 9.01622C12.7356 8.21622 8.62361 10.1042 6.62361 13.5202C4.62361 16.9362 5.01561 21.4242 7.57561 24.4162C10.1356 27.4082 14.3436 28.5362 18.0636 27.1762C21.7836 25.8162 24.1916 22.2162 24.2476 18.2962L24.2396 18.2882C24.2399 18.2565 24.2421 18.2261 24.246 18.1968C24.1872 15.5191 23.0236 13.0495 21.1439 11.3176C19.403 14.5051 17.7465 17.7392 16.1756 21.0162C15.9916 21.3922 15.4396 21.4162 15.1676 21.1442Z" fill="#1C1D1F"/>
</svg>
